<?xml version="1.0" encoding="UTF-8"?>
<svg xmlns="http://www.w3.org/2000/svg" xmlns:xlink="http://www.w3.org/1999/xlink" viewBox="0 0 24 24" width="24px" height="24px">
<g id="surface424089">
<path style=" stroke:none;fill-rule:nonzero;fill:rgb(100%,100%,100%);fill-opacity:1;" d="M 12 18.960938 C 8.15625 18.960938 5.039062 15.84375 5.039062 12 C 5.039062 8.15625 8.15625 5.039062 12 5.039062 C 15.84375 5.039062 18.960938 8.15625 18.960938 12 C 18.960938 15.84375 15.84375 18.960938 12 18.960938 Z M 12 18.960938 "/>
<path style=" stroke:none;fill-rule:nonzero;fill:rgb(0%,0%,0%);fill-opacity:1;" d="M 12 4 C 7.589844 4 4 7.589844 4 12 C 4 16.410156 7.589844 20 12 20 C 16.410156 20 20 16.410156 20 12 C 20 7.589844 16.410156 4 12 4 Z M 12 5.601562 C 15.542969 5.601562 18.398438 8.457031 18.398438 12 C 18.398438 15.542969 15.542969 18.398438 12 18.398438 C 8.457031 18.398438 5.601562 15.542969 5.601562 12 C 5.601562 8.457031 8.457031 5.601562 12 5.601562 Z M 10.953125 8.800781 C 9.71875 8.800781 8.558594 8.9375 7.460938 9.210938 C 7.1875 9.28125 6.984375 9.484375 6.984375 9.894531 C 6.984375 10.304688 7.257812 10.648438 7.667969 10.578125 C 7.871094 10.578125 7.941406 10.511719 8.078125 10.511719 C 8.96875 10.304688 9.992188 10.167969 10.953125 10.167969 C 12.867188 10.167969 14.851562 10.648438 16.21875 11.398438 C 16.425781 11.46875 16.492188 11.539062 16.628906 11.539062 C 17.039062 11.539062 17.316406 11.261719 17.382812 10.851562 C 17.382812 10.511719 17.179688 10.304688 16.972656 10.167969 C 15.261719 9.277344 13.074219 8.800781 10.953125 8.800781 Z M 10.816406 11.195312 C 9.652344 11.195312 8.832031 11.402344 8.011719 11.605469 C 7.667969 11.742188 7.53125 11.878906 7.53125 12.222656 C 7.53125 12.496094 7.734375 12.769531 8.078125 12.769531 C 8.214844 12.769531 8.285156 12.769531 8.421875 12.699219 C 9.035156 12.5625 9.855469 12.425781 10.746094 12.425781 C 12.523438 12.425781 14.167969 12.835938 15.332031 13.589844 C 15.46875 13.65625 15.605469 13.726562 15.742188 13.726562 C 16.082031 13.726562 16.289062 13.453125 16.359375 13.109375 C 16.359375 12.90625 16.222656 12.699219 16.015625 12.5625 C 14.511719 11.675781 12.730469 11.195312 10.816406 11.195312 Z M 11.019531 13.605469 C 10.0625 13.605469 9.171875 13.742188 8.28125 13.949219 C 8.007812 13.949219 7.875 14.152344 7.875 14.425781 C 7.875 14.699219 8.078125 14.90625 8.351562 14.90625 C 8.421875 14.90625 8.558594 14.835938 8.695312 14.835938 C 9.378906 14.699219 10.199219 14.5625 10.953125 14.5625 C 12.320312 14.5625 13.621094 14.90625 14.648438 15.523438 C 14.785156 15.589844 14.851562 15.65625 14.988281 15.65625 C 15.195312 15.65625 15.398438 15.523438 15.535156 15.179688 C 15.535156 14.90625 15.398438 14.835938 15.261719 14.699219 C 14.03125 14.015625 12.59375 13.605469 11.019531 13.605469 Z M 11.019531 13.605469 "/>
</g>
</svg>
